<mxfile host="65bd71144e">
    <diagram id="Jn-0KRcfqssvJrgO6j4Q" name="Page-1">
        <mxGraphModel dx="1300" dy="879" grid="1" gridSize="10" guides="1" tooltips="1" connect="1" arrows="1" fold="1" page="1" pageScale="1" pageWidth="1100" pageHeight="850" math="0" shadow="0">
            <root>
                <mxCell id="0"/>
                <mxCell id="1" parent="0"/>
                <mxCell id="11" value="Presentation" style="swimlane;whiteSpace=wrap;html=1;fontColor=#333333;" vertex="1" parent="1">
                    <mxGeometry x="33" y="40" width="200" height="740" as="geometry"/>
                </mxCell>
                <mxCell id="5" value="CLI" style="rounded=0;whiteSpace=wrap;html=1;" vertex="1" parent="11">
                    <mxGeometry x="40" y="320" width="120" height="60" as="geometry"/>
                </mxCell>
                <mxCell id="12" value="Application" style="swimlane;whiteSpace=wrap;html=1;fontColor=#333333;" vertex="1" parent="1">
                    <mxGeometry x="280" y="40" width="240" height="740" as="geometry"/>
                </mxCell>
                <mxCell id="2" value="ChatService" style="rounded=0;whiteSpace=wrap;html=1;" vertex="1" parent="12">
                    <mxGeometry x="60" y="190" width="120" height="60" as="geometry"/>
                </mxCell>
                <mxCell id="3" value="BugFindService" style="rounded=0;whiteSpace=wrap;html=1;" vertex="1" parent="12">
                    <mxGeometry x="60" y="320" width="120" height="60" as="geometry"/>
                </mxCell>
                <mxCell id="4" value="TestGenService" style="rounded=0;whiteSpace=wrap;html=1;" vertex="1" parent="12">
                    <mxGeometry x="60" y="460" width="120" height="60" as="geometry"/>
                </mxCell>
                <mxCell id="27" value="CmdService" style="rounded=0;whiteSpace=wrap;html=1;" vertex="1" parent="12">
                    <mxGeometry x="60" y="80" width="120" height="60" as="geometry"/>
                </mxCell>
                <mxCell id="13" value="Domain" style="swimlane;whiteSpace=wrap;html=1;fontColor=#333333;" vertex="1" parent="1">
                    <mxGeometry x="550" y="40" width="250" height="740" as="geometry"/>
                </mxCell>
                <mxCell id="7" value="ChatClient" style="rounded=0;whiteSpace=wrap;html=1;" vertex="1" parent="13">
                    <mxGeometry x="65" y="190" width="120" height="60" as="geometry"/>
                </mxCell>
                <mxCell id="17" value="" style="group" vertex="1" connectable="0" parent="13">
                    <mxGeometry x="50" y="460" width="150" height="85" as="geometry"/>
                </mxCell>
                <mxCell id="8" value="ChatHistoryRepository" style="rounded=0;whiteSpace=wrap;html=1;" vertex="1" parent="17">
                    <mxGeometry width="150" height="60" as="geometry"/>
                </mxCell>
                <mxCell id="10" value="future work" style="text;html=1;align=center;verticalAlign=middle;resizable=0;points=[];autosize=1;strokeColor=none;fillColor=none;fontColor=#CC0000;" vertex="1" parent="17">
                    <mxGeometry x="70" y="55" width="80" height="30" as="geometry"/>
                </mxCell>
                <mxCell id="14" value="Infra" style="swimlane;whiteSpace=wrap;html=1;fontColor=#333333;" vertex="1" parent="1">
                    <mxGeometry x="830" y="40" width="250" height="740" as="geometry"/>
                </mxCell>
                <mxCell id="6" value="ChatGPTClient" style="rounded=0;whiteSpace=wrap;html=1;" vertex="1" parent="14">
                    <mxGeometry x="65" y="190" width="120" height="60" as="geometry"/>
                </mxCell>
                <mxCell id="18" value="" style="group" vertex="1" connectable="0" parent="14">
                    <mxGeometry x="49" y="460" width="152" height="90" as="geometry"/>
                </mxCell>
                <mxCell id="15" value="SQLiteStore" style="rounded=0;whiteSpace=wrap;html=1;" vertex="1" parent="18">
                    <mxGeometry width="150" height="60" as="geometry"/>
                </mxCell>
                <mxCell id="16" value="future work" style="text;html=1;align=center;verticalAlign=middle;resizable=0;points=[];autosize=1;strokeColor=none;fillColor=none;fontColor=#CC0000;" vertex="1" parent="18">
                    <mxGeometry x="72" y="60" width="80" height="30" as="geometry"/>
                </mxCell>
                <mxCell id="19" style="edgeStyle=none;html=1;exitX=1;exitY=0.5;exitDx=0;exitDy=0;entryX=0;entryY=0.5;entryDx=0;entryDy=0;fontColor=#333333;" edge="1" parent="1" source="5" target="2">
                    <mxGeometry relative="1" as="geometry"/>
                </mxCell>
                <mxCell id="20" style="edgeStyle=none;html=1;exitX=1;exitY=0.5;exitDx=0;exitDy=0;entryX=0;entryY=0.5;entryDx=0;entryDy=0;fontColor=#333333;" edge="1" parent="1" source="5" target="3">
                    <mxGeometry relative="1" as="geometry"/>
                </mxCell>
                <mxCell id="21" style="edgeStyle=none;html=1;exitX=1;exitY=0.5;exitDx=0;exitDy=0;entryX=0;entryY=0.5;entryDx=0;entryDy=0;fontColor=#333333;" edge="1" parent="1" source="5" target="4">
                    <mxGeometry relative="1" as="geometry"/>
                </mxCell>
                <mxCell id="22" style="edgeStyle=none;html=1;exitX=1;exitY=0.5;exitDx=0;exitDy=0;entryX=0;entryY=0.5;entryDx=0;entryDy=0;fontColor=#333333;" edge="1" parent="1" source="2" target="7">
                    <mxGeometry relative="1" as="geometry"/>
                </mxCell>
                <mxCell id="23" style="edgeStyle=none;html=1;exitX=1;exitY=0.5;exitDx=0;exitDy=0;entryX=0;entryY=0.75;entryDx=0;entryDy=0;fontColor=#333333;" edge="1" parent="1" source="3" target="7">
                    <mxGeometry relative="1" as="geometry"/>
                </mxCell>
                <mxCell id="24" style="edgeStyle=none;html=1;exitX=1;exitY=0.5;exitDx=0;exitDy=0;entryX=0.25;entryY=1;entryDx=0;entryDy=0;fontColor=#333333;" edge="1" parent="1" source="4" target="7">
                    <mxGeometry relative="1" as="geometry"/>
                </mxCell>
                <mxCell id="25" style="edgeStyle=none;html=1;exitX=1;exitY=0.5;exitDx=0;exitDy=0;entryX=0;entryY=0.5;entryDx=0;entryDy=0;fontColor=#333333;" edge="1" parent="1" source="8" target="15">
                    <mxGeometry relative="1" as="geometry"/>
                </mxCell>
                <mxCell id="26" style="edgeStyle=none;html=1;exitX=1;exitY=0.5;exitDx=0;exitDy=0;entryX=0;entryY=0.5;entryDx=0;entryDy=0;fontColor=#333333;" edge="1" parent="1" source="7" target="6">
                    <mxGeometry relative="1" as="geometry"/>
                </mxCell>
                <mxCell id="28" style="edgeStyle=none;html=1;exitX=1;exitY=0.5;exitDx=0;exitDy=0;entryX=0;entryY=0.5;entryDx=0;entryDy=0;fontColor=#333333;" edge="1" parent="1" source="5" target="27">
                    <mxGeometry relative="1" as="geometry"/>
                </mxCell>
            </root>
        </mxGraphModel>
    </diagram>
</mxfile>